HIERARCHY
ROOT root
{
	OFFSET 0.000000 0.000000 0.000000
	CHANNELS 6 Xposition Yposition Zposition Zrotation Yrotation Xrotation
	JOINT lhip
	{
		OFFSET 0.058581 -0.082280 -0.017664
		CHANNELS 3 Zrotation Yrotation Xrotation
		JOINT lknee
		{
			OFFSET 0.043451 -0.386469 0.008037
			CHANNELS 3 Zrotation Yrotation Xrotation
			JOINT lankle
			{
				OFFSET -0.014790 -0.426874 -0.037428
				CHANNELS 3 Zrotation Yrotation Xrotation
				JOINT ltoe
				{
					OFFSET 0.041054 -0.060286 0.122042
					CHANNELS 3 Zrotation Yrotation Xrotation
					End Site
					{
						OFFSET 0.000000 0.000000 0.000000
					}
				}
			}
		}
	}
	JOINT rhip
	{
		OFFSET -0.060310 -0.090513 -0.013543
		CHANNELS 3 Zrotation Yrotation Xrotation
		JOINT rknee
		{
			OFFSET -0.043257 -0.383688 -0.004843
			CHANNELS 3 Zrotation Yrotation Xrotation
			JOINT rankle
			{
				OFFSET 0.019056 -0.420046 -0.034562
				CHANNELS 3 Zrotation Yrotation Xrotation
				JOINT rtoe
				{
					OFFSET -0.034840 -0.062106 0.130323
					CHANNELS 3 Zrotation Yrotation Xrotation
					End Site
					{
						OFFSET 0.000000 0.000000 0.000000
					}
				}
			}
		}
	}
	JOINT lowerback
	{
		OFFSET 0.004439 0.124404 -0.038385
		CHANNELS 3 Zrotation Yrotation Xrotation
		JOINT upperback
		{
			OFFSET 0.004488 0.137956 0.026820
			CHANNELS 3 Zrotation Yrotation Xrotation
			JOINT chest
			{
				OFFSET -0.002265 0.056032 0.002855
				CHANNELS 3 Zrotation Yrotation Xrotation
				JOINT lowerneck
				{
					OFFSET -0.013390 0.211636 -0.033468
					CHANNELS 3 Zrotation Yrotation Xrotation
					JOINT upperneck
					{
						OFFSET 0.010113 0.088937 0.050410
						CHANNELS 3 Zrotation Yrotation Xrotation
						End Site
						{
							OFFSET 0.000000 0.000000 0.000000
						}
					}
				}
				JOINT lclavicle
				{
					OFFSET 0.071702 0.114000 -0.018898
					CHANNELS 3 Zrotation Yrotation Xrotation
					JOINT lshoulder
					{
						OFFSET 0.122921 0.045205 -0.019046
						CHANNELS 3 Zrotation Yrotation Xrotation
						JOINT lelbow
						{
							OFFSET 0.255332 -0.015649 -0.022946
							CHANNELS 3 Zrotation Yrotation Xrotation
							JOINT lwrist
							{
								OFFSET 0.265709 0.012698 -0.007375
								CHANNELS 3 Zrotation Yrotation Xrotation
								End Site
								{
									OFFSET 0.000000 0.000000 0.000000
								}
							}
						}
					}
				}
				JOINT rclavicle
				{
					OFFSET -0.082954 0.112472 -0.023707
					CHANNELS 3 Zrotation Yrotation Xrotation
					JOINT rshoulder
					{
						OFFSET -0.113228 0.046853 -0.008472
						CHANNELS 3 Zrotation Yrotation Xrotation
						JOINT relbow
						{
							OFFSET -0.260127 -0.014369 -0.031269
							CHANNELS 3 Zrotation Yrotation Xrotation
							JOINT rwrist
							{
								OFFSET -0.269108 0.006794 -0.006027
								CHANNELS 3 Zrotation Yrotation Xrotation
								End Site
								{
									OFFSET 0.000000 0.000000 0.000000
								}
							}
						}
					}
				}
			}
		}
	}
}
MOTION
Frames: 13
Frame Time: 0.033333
-0.039872 1.393421 1.005180 -5.204717 -2.857089 81.120858 2.224417 3.000997 3.896152 -0.033738 -4.912528 10.348310 3.247771 9.353135 -10.355286 0.000000 -0.000000 0.000000 -3.937309 -5.958475 5.396494 -2.858125 -3.491723 4.456930 2.373876 -11.285389 -10.768313 0.000000 -0.000000 0.000000 -3.024117 4.299670 8.127285 1.937488 -6.124313 13.022421 -0.431681 -0.931872 -0.022968 5.150882 -6.651706 -2.241443 8.364543 -13.428328 -5.699126 -27.851479 -15.174002 5.831195 -42.729561 -13.145799 10.459490 -3.709197 -23.263052 9.844188 1.391514 1.336041 -4.920883 29.615538 15.241772 7.729570 55.344589 10.265836 9.736194 -29.289858 30.503720 -34.203594 3.180113 -0.525861 -20.713321 
-0.039837 1.393348 1.005068 -5.282419 -2.923972 81.060682 2.168580 3.142973 3.996043 -0.090761 -5.171795 10.319446 2.967318 9.625414 -10.407176 0.000000 -0.000000 0.000000 -3.971159 -5.737173 5.454389 -2.878762 -3.437472 4.478383 2.360042 -11.578052 -10.798025 0.000000 -0.000000 0.000000 -3.190324 4.227486 8.174278 1.757616 -5.924411 12.853349 -0.391013 -0.843700 0.030395 4.926395 -4.586414 -1.820876 7.681576 -11.731886 -4.943343 -27.919906 -15.147230 6.390842 -42.460269 -12.990479 10.251570 -3.360673 -23.083577 9.890638 2.686924 1.035914 -5.698184 30.056124 15.305635 8.529965 54.434194 10.456729 10.040444 -27.399961 31.662503 -32.399595 -0.898274 -0.510137 -26.255156 
-0.039393 1.393535 1.004440 -5.161666 -2.828142 81.131722 2.189574 3.160673 3.808295 -0.012986 -5.385708 10.298250 2.552341 9.846083 -10.253388 0.000000 -0.000000 0.000000 -3.819215 -5.637929 5.377188 -2.932121 -3.506050 4.391093 2.125343 -11.829579 -10.656314 0.000000 -0.000000 0.000000 -3.084225 4.122572 8.239601 1.558191 -5.768458 12.471293 -0.381886 -0.766826 0.149472 4.802489 -2.370248 -1.535157 7.082787 -9.876863 -4.188573 -27.723842 -15.088321 6.892163 -42.587711 -13.047709 10.084136 -2.831057 -22.870358 10.422766 3.498644 0.770581 -6.798686 30.135909 15.057558 9.220758 53.832530 10.717645 10.269770 -25.455718 32.834168 -29.525793 -4.788051 -0.936410 -32.153743 
-0.038623 1.393845 1.003587 -4.737580 -2.569137 81.316434 2.289747 2.899137 3.358796 -0.008195 -5.888944 10.433066 1.847682 10.101898 -10.070293 0.000000 -0.000000 0.000000 -3.496133 -5.690034 5.140880 -3.008292 -3.662920 4.358897 1.522073 -12.184060 -10.395452 0.000000 -0.000000 0.000000 -2.748675 4.014632 8.456790 1.293516 -5.667003 11.739839 -0.361705 -0.626452 0.539550 4.620252 0.719033 -1.100736 6.353338 -7.010701 -4.197467 -27.554782 -15.061710 6.974877 -42.656368 -12.760094 10.221512 -2.285858 -22.877646 10.877241 5.324731 0.730495 -7.708289 30.071527 14.486644 9.732280 53.209790 11.156141 10.654771 -22.890577 34.575235 -25.646405 -9.834095 -3.957250 -37.569550 
-0.038565 1.393813 1.003404 -4.657299 -2.524425 81.325020 2.311015 2.872471 3.323862 0.014108 -5.995619 10.412862 1.728721 10.130484 -10.023181 0.000000 -0.000000 0.000000 -3.421747 -5.672098 5.120657 -3.049198 -3.701609 4.370859 1.425631 -12.274245 -10.397394 0.000000 -0.000000 0.000000 -2.700204 4.022933 8.541617 1.202437 -5.561433 11.588850 -0.360844 -0.607691 0.639645 4.641271 1.562886 -1.093775 6.083146 -6.200286 -4.116200 -27.486378 -15.029295 7.002002 -42.614532 -12.647350 10.225753 -2.162481 -22.930865 10.810846 5.940365 0.689335 -8.007461 30.035832 14.354984 9.919583 53.259547 11.285470 10.776374 -22.427200 34.923333 -25.313037 -11.441603 -4.505630 -39.199475 
-0.038364 1.393476 1.003301 -4.396997 -2.472279 81.367999 2.325558 2.663999 3.289388 0.020958 -5.986259 10.309329 1.904809 10.020756 -9.880724 0.000000 -0.000000 0.000000 -3.398621 -5.857181 5.111610 -3.061546 -3.794876 4.359740 1.466246 -12.287503 -10.443101 0.000000 -0.000000 0.000000 -2.682997 4.127556 8.529753 1.033073 -5.476314 11.557283 -0.397857 -0.525384 0.688319 4.653922 2.914441 -1.131629 5.851985 -4.557262 -3.988480 -27.453088 -14.883946 6.751136 -42.475432 -12.349765 9.805351 -1.640034 -23.026335 10.586930 4.410977 0.532313 -7.867110 30.066518 14.139884 9.878431 53.515519 10.983894 10.695220 -23.262119 33.958690 -24.713110 -8.729729 -3.273086 -34.869238 
-0.038290 1.393421 1.003641 -4.028714 -2.380419 81.400884 2.432178 2.545668 3.158267 -0.042006 -6.074768 10.374738 1.952786 9.983226 -9.932249 0.000000 -0.000000 0.000000 -3.326641 -5.969058 5.156050 -3.056965 -3.901425 4.304966 1.511096 -12.376394 -10.471356 0.000000 -0.000000 0.000000 -2.667749 4.142744 8.638530 0.849867 -5.377686 11.475713 -0.431810 -0.506237 0.669631 4.629985 4.030735 -1.190023 5.715529 -3.025063 -4.113435 -27.494300 -14.622202 6.656374 -42.221118 -12.085060 9.549282 -1.326811 -23.195289 10.045776 4.555046 0.378829 -8.082022 29.993279 14.018058 9.745787 53.802452 10.568085 10.961342 -23.020787 33.490800 -24.867160 -7.566231 -2.516922 -34.024261 
-0.038181 1.393025 1.003817 -3.833018 -2.353751 81.363063 2.473182 2.464111 3.267986 -0.096894 -6.170669 10.247838 1.897349 9.950082 -9.953928 0.000000 -0.000000 0.000000 -3.293641 -6.012765 5.274540 -3.126313 -4.029509 4.258142 1.363724 -12.476237 -10.520105 0.000000 -0.000000 0.000000 -2.748017 4.195686 8.700989 0.701688 -5.221032 11.557362 -0.413752 -0.467954 0.651533 4.546019 4.967344 -1.247256 5.590120 -1.965265 -4.076388 -27.546688 -14.410596 6.738599 -42.161584 -11.759398 9.298645 -0.572309 -23.466152 9.158683 4.472466 0.219088 -7.973225 29.949143 13.871082 9.839027 53.903168 10.499466 10.951908 -22.435091 32.908982 -24.394009 -6.879166 -2.228042 -34.175472 
-0.037966 1.392670 1.003815 -3.619757 -2.363853 81.344043 2.432175 2.361814 3.308675 -0.106117 -6.277712 10.183016 1.912844 10.012616 -9.943762 0.000000 -0.000000 0.000000 -3.311825 -6.019593 5.352510 -3.145983 -4.032376 4.249017 1.450252 -12.593156 -10.523295 0.000000 -0.000000 0.000000 -2.823885 4.248752 8.717946 0.556573 -5.042464 11.617310 -0.446221 -0.419286 0.743757 4.575022 5.355971 -1.270613 5.397286 -1.446683 -3.978698 -27.531963 -14.122785 6.667559 -42.101760 -11.543064 9.129491 -0.016210 -23.608311 8.526996 4.488682 0.357949 -7.990319 29.933207 13.803606 9.906391 53.995175 10.536627 10.948381 -21.809402 32.093793 -24.226674 -6.959087 -2.200136 -34.291340 
-0.037739 1.392498 1.003745 -3.359605 -2.336435 81.372403 2.431860 2.273474 3.250191 -0.176623 -6.563585 10.202772 1.889773 9.984366 -9.974133 0.000000 -0.000000 0.000000 -3.300250 -6.129267 5.350910 -3.170452 -4.050444 4.255705 1.461924 -12.750737 -10.548270 0.000000 -0.000000 0.000000 -2.855875 4.302449 8.782624 0.430993 -4.906817 11.545122 -0.514048 -0.292353 0.823984 4.446238 5.699527 -1.326238 5.354690 -0.989431 -3.953241 -27.630473 -13.803586 6.539069 -41.880912 -11.307182 9.014305 0.194320 -23.693375 7.936168 6.083292 0.334609 -7.698571 30.147591 13.694101 9.916320 53.915591 10.478933 10.879032 -21.172134 31.166052 -24.185058 -7.225694 -2.427686 -33.800990 
-0.037069 1.392771 1.003630 -2.930786 -2.248819 81.444089 2.431543 2.215867 2.974718 -0.116243 -6.782029 10.308386 1.907152 9.877491 -10.026634 0.000000 -0.000000 0.000000 -3.262896 -6.250580 5.262114 -3.177710 -4.242608 4.311697 1.451177 -12.827917 -10.573889 0.000000 -0.000000 0.000000 -2.707172 4.265316 8.979605 0.268070 -4.857159 11.394126 -0.615664 -0.219197 0.831054 4.303225 5.903712 -1.418345 5.207201 -0.610046 -4.020050 -27.693478 -13.647812 6.568868 -41.799886 -11.216298 8.681441 0.643028 -23.466966 7.426797 6.396463 0.258744 -7.720821 30.069782 13.684828 9.874873 54.429509 10.482384 10.654660 -21.256439 29.843011 -24.641279 -6.891734 -2.389283 -33.641716 
-0.037057 1.391840 1.003901 -3.096551 -2.313687 81.339060 2.434804 2.362750 3.378336 -0.176351 -6.833511 9.943688 1.881208 9.840517 -10.003641 0.000000 -0.000000 0.000000 -3.318674 -6.221086 5.516898 -3.223968 -4.200372 4.104703 1.435827 -12.687634 -10.505317 0.000000 -0.000000 0.000000 -2.776076 4.574498 8.800516 0.099050 -4.594520 11.862152 -0.762581 -0.148350 0.830715 4.331980 6.296813 -1.406566 5.206634 -0.484982 -4.294396 -27.638012 -13.615269 6.742280 -41.701905 -11.097717 8.286490 1.273446 -23.283105 6.634944 6.916538 0.107530 -8.257676 29.931238 13.787613 9.964294 55.677205 11.034328 10.316197 -22.075616 27.904060 -26.300331 -7.520981 -2.911719 -34.181993 
-0.036518 1.392095 1.003725 -2.548210 -2.278903 81.398749 2.345118 2.261091 2.982954 -0.088810 -6.999931 10.277396 1.760857 9.589130 -10.087713 0.000000 -0.000000 0.000000 -3.336619 -6.279561 5.506326 -3.241367 -4.579615 4.080545 1.387588 -12.734683 -10.446293 0.000000 -0.000000 0.000000 -2.719459 4.448149 9.008057 -0.076444 -4.759240 11.678101 -1.024083 -0.139616 0.893052 4.523131 6.939212 -1.602466 4.968451 -0.573973 -4.445115 -27.477236 -13.307596 6.891991 -41.734795 -11.047774 7.778920 2.053340 -23.043459 6.281018 6.765863 0.173142 -8.570446 29.795213 13.705272 9.844161 57.268112 11.952715 10.101836 -23.006359 25.959423 -28.842691 -8.814808 -4.479252 -37.195000 
